REM DIRINDEX 1\3,1\2\4,1\2\5,1\2\6
REM DIRNAME cjc137,folder01,folder02,folder03,folder04,folder05
TITLE ""
FILE "093.mp3" MP3
  TRACK 01 AUDIO
    TITLE "4:cjc137_3825"
    INDEX 01 00:00:00
  TRACK 02 AUDIO
    TITLE "0:"
    INDEX 01 00:01:36
  TRACK 03 AUDIO
    TITLE "6:cjc137_3826"
    INDEX 01 00:01:42
  TRACK 04 AUDIO
    TITLE "0:"
    INDEX 01 00:02:63
  TRACK 05 AUDIO
    TITLE "5:cjc137_3827"
    INDEX 01 00:02:69
  TRACK 06 AUDIO
    TITLE "0:"
    INDEX 01 00:04:27
  TRACK 07 AUDIO
    TITLE "4:cjc137_3828"
    INDEX 01 00:05:38
  TRACK 08 AUDIO
    TITLE "0:"
    INDEX 01 00:06:51
  TRACK 09 AUDIO
    TITLE "6:cjc137_3829"
    INDEX 01 00:06:61
  TRACK 10 AUDIO
    TITLE "0:"
    INDEX 01 00:08:15
  TRACK 11 AUDIO
    TITLE "5:cjc137_3830"
    INDEX 01 00:08:23
  TRACK 12 AUDIO
    TITLE "0:"
    INDEX 01 00:09:36
  TRACK 13 AUDIO
    TITLE "4:cjc137_3831"
    INDEX 01 00:10:45
  TRACK 14 AUDIO
    TITLE "0:"
    INDEX 01 00:11:54
  TRACK 15 AUDIO
    TITLE "6:cjc137_3832"
    INDEX 01 00:11:64
  TRACK 16 AUDIO
    TITLE "0:"
    INDEX 01 00:12:69
  TRACK 17 AUDIO
    TITLE "5:cjc137_3833"
    INDEX 01 00:12:73
  TRACK 18 AUDIO
    TITLE "0:"
    INDEX 01 00:14:06
  TRACK 19 AUDIO
    TITLE "4:cjc137_3834"
    INDEX 01 00:15:19
  TRACK 20 AUDIO
    TITLE "0:"
    INDEX 01 00:16:24
  TRACK 21 AUDIO
    TITLE "6:cjc137_3835"
    INDEX 01 00:16:38
  TRACK 22 AUDIO
    TITLE "0:"
    INDEX 01 00:17:51
  TRACK 23 AUDIO
    TITLE "5:cjc137_3836"
    INDEX 01 00:17:61
  TRACK 24 AUDIO
    TITLE "0:"
    INDEX 01 00:18:66
  TRACK 25 AUDIO
    TITLE "4:cjc137_3837"
    INDEX 01 00:20:04
  TRACK 26 AUDIO
    TITLE "0:"
    INDEX 01 00:21:11
  TRACK 27 AUDIO
    TITLE "6:cjc137_3838"
    INDEX 01 00:21:19
  TRACK 28 AUDIO
    TITLE "0:"
    INDEX 01 00:22:42
  TRACK 29 AUDIO
    TITLE "5:cjc137_3839"
    INDEX 01 00:22:50
  TRACK 30 AUDIO
    TITLE "0:"
    INDEX 01 00:23:57
  TRACK 31 AUDIO
    TITLE "4:cjc137_3840"
    INDEX 01 00:24:67
  TRACK 32 AUDIO
    TITLE "0:"
    INDEX 01 00:25:72
  TRACK 33 AUDIO
    TITLE "6:cjc137_3841"
    INDEX 01 00:26:03
  TRACK 34 AUDIO
    TITLE "0:"
    INDEX 01 00:27:04
  TRACK 35 AUDIO
    TITLE "5:cjc137_3842"
    INDEX 01 00:27:10
  TRACK 36 AUDIO
    TITLE "0:"
    INDEX 01 00:28:15
  TRACK 37 AUDIO
    TITLE "4:cjc137_3843"
    INDEX 01 00:29:25
  TRACK 38 AUDIO
    TITLE "0:"
    INDEX 01 00:30:38
  TRACK 39 AUDIO
    TITLE "6:cjc137_3844"
    INDEX 01 00:30:44
  TRACK 40 AUDIO
    TITLE "0:"
    INDEX 01 00:31:41
  TRACK 41 AUDIO
    TITLE "5:cjc137_3845"
    INDEX 01 00:31:47
  TRACK 42 AUDIO
    TITLE "0:"
    INDEX 01 00:32:60
  TRACK 43 AUDIO
    TITLE "4:cjc137_3846"
    INDEX 01 00:33:69
  TRACK 44 AUDIO
    TITLE "0:"
    INDEX 01 00:34:71
  TRACK 45 AUDIO
    TITLE "6:cjc137_3847"
    INDEX 01 00:35:02
  TRACK 46 AUDIO
    TITLE "0:"
    INDEX 01 00:36:15
  TRACK 47 AUDIO
    TITLE "5:cjc137_3848"
    INDEX 01 00:36:23
  TRACK 48 AUDIO
    TITLE "0:"
    INDEX 01 00:37:24
  TRACK 49 AUDIO
    TITLE "4:cjc137_3849"
    INDEX 01 00:38:33
  TRACK 50 AUDIO
    TITLE "0:"
    INDEX 01 00:39:54
  TRACK 51 AUDIO
    TITLE "6:cjc137_3850"
    INDEX 01 00:39:60
  TRACK 52 AUDIO
    TITLE "0:"
    INDEX 01 00:40:68
  TRACK 53 AUDIO
    TITLE "5:cjc137_3851"
    INDEX 01 00:41:00
  TRACK 54 AUDIO
    TITLE "0:"
    INDEX 01 00:42:21
  TRACK 55 AUDIO
    TITLE "4:cjc137_3852"
    INDEX 01 00:43:29
  TRACK 56 AUDIO
    TITLE "0:"
    INDEX 01 00:44:48
  TRACK 57 AUDIO
    TITLE "6:cjc137_3853"
    INDEX 01 00:44:56
  TRACK 58 AUDIO
    TITLE "0:"
    INDEX 01 00:46:00
  TRACK 59 AUDIO
    TITLE "5:cjc137_3854"
    INDEX 01 00:46:06
  TRACK 60 AUDIO
    TITLE "0:"
    INDEX 01 00:47:23
  TRACK 61 AUDIO
    TITLE "4:cjc137_3855"
    INDEX 01 00:48:34
  TRACK 62 AUDIO
    TITLE "0:"
    INDEX 01 00:49:39
  TRACK 63 AUDIO
    TITLE "6:cjc137_3856"
    INDEX 01 00:49:49
  TRACK 64 AUDIO
    TITLE "0:"
    INDEX 01 00:50:39
  TRACK 65 AUDIO
    TITLE "5:cjc137_3857"
    INDEX 01 00:50:44
  TRACK 66 AUDIO
    TITLE "0:"
    INDEX 01 00:51:50
  TRACK 67 AUDIO
    TITLE "4:cjc137_3858"
    INDEX 01 00:52:61
  TRACK 68 AUDIO
    TITLE "0:"
    INDEX 01 00:54:05
  TRACK 69 AUDIO
    TITLE "6:cjc137_3859"
    INDEX 01 00:54:23
  TRACK 70 AUDIO
    TITLE "0:"
    INDEX 01 00:55:36
  TRACK 71 AUDIO
    TITLE "5:cjc137_3860"
    INDEX 01 00:55:44
  TRACK 72 AUDIO
    TITLE "0:"
    INDEX 01 00:56:63
  TRACK 73 AUDIO
    TITLE "4:cjc137_3861"
    INDEX 01 00:58:01
  TRACK 74 AUDIO
    TITLE "0:"
    INDEX 01 00:59:04
  TRACK 75 AUDIO
    TITLE "6:cjc137_3862"
    INDEX 01 00:59:10
  TRACK 76 AUDIO
    TITLE "0:"
    INDEX 01 01:00:13
  TRACK 77 AUDIO
    TITLE "5:cjc137_3863"
    INDEX 01 01:00:19
  TRACK 78 AUDIO
    TITLE "0:"
    INDEX 01 01:01:23
  TRACK 79 AUDIO
    TITLE "4:cjc137_3864"
    INDEX 01 01:02:30
  TRACK 80 AUDIO
    TITLE "0:"
    INDEX 01 01:03:39
  TRACK 81 AUDIO
    TITLE "6:cjc137_3865"
    INDEX 01 01:03:45
  TRACK 82 AUDIO
    TITLE "0:"
    INDEX 01 01:04:56
  TRACK 83 AUDIO
    TITLE "5:cjc137_3866"
    INDEX 01 01:04:60
  TRACK 84 AUDIO
    TITLE "0:"
    INDEX 01 01:05:69
